<?xml version="1.0" encoding="utf-8"?>
<!-- Generator: Adobe Illustrator 22.1.0, SVG Export Plug-In . SVG Version: 6.00 Build 0)  -->
<svg version="1.1" id="Capa_1" xmlns="http://www.w3.org/2000/svg" xmlns:xlink="http://www.w3.org/1999/xlink" x="0px" y="0px"
	 viewBox="0 0 71.9 71.9" style="enable-background:new 0 0 71.9 71.9;" xml:space="preserve">
<style type="text/css">
	.st0{fill:#009CAC;}
</style>
<g>
	<g>
		<g>
			<path class="st0" d="M68.9,53.8c-0.7-1.3-1.6-1.6-2.9-2c-5.8-2.2-11-3.4-16.8-5.4c-0.4-0.2-2-1.1-2-4c0-1.1-0.2-1.8-1.6-1.8
				c-0.4,0-0.2,0-0.4-0.9c-0.4-2.7-0.2-4-0.2-4.5c0-0.4,0.4-0.7,0.7-0.9c2-2.7,2.5-6,2.5-7.8c0,0,0.4,0.2,0.7-0.9
				c0.4-1.1,0.4-1.6,0.9-2.9c0.4-1.1,0.4-3.4-0.9-3.4c-0.9,0.2-0.7,0-0.7-0.9v-7.6c-0.2-2.7-1.8-4.3-3.1-5.2
				c-1.8-1.1-2.5-1.6-3.4-2.2c-0.9-0.7-0.7-1.3,0-2.2C42,0.7,42.7,0.2,42.9,0c0,0-0.2,0-0.4,0c-0.4,0-4.7,0.7-6.3,1.1
				c-3.4,0.9-6.5,1.8-9.2,4c-1.8,1.3-3.4,3.4-3.4,5.6c0,1.1,0,5.4,0,7.6c0,0.7,0,1.1-0.9,0.9c-1.6-0.2-0.7,2.9-0.7,3.1
				c0.2,1.1,0.7,2,1.1,3.4c0.2,0.9,0.7,0.9,0.7,0.9c0.4,2,1.1,5.6,2.9,7.8c0.2,0.2,0.4,0.7,0.4,1.1C27,37,27,38.8,26.8,40.1
				c0,0.2-0.2,0.9-0.7,0.9c-1.1,0-1.6,0.9-1.3,1.8c0,2-1.3,3.6-2,4c-2.9,1.3-13,4.3-16.4,5.4c-2.2,0.7-2.9,1.3-3.4,2.2l-2.9,7.4
				c12.8,0,19.3,7.8,32.5,10.1c0,0,0,0,0.2,0l-3.6-6.3l6.9-19.3l-2.2-4.7h4.5l-2.2,4.7l6.9,19.3l-4.3,5.8c0.2,0,0.4,0,0.4,0
				C53,69.2,62.4,61.4,71.8,61.4L68.9,53.8z M60.6,57.6H50.3v-1.8h10.3L60.6,57.6L60.6,57.6z"/>
		</g>
	</g>
</g>
</svg>
