<?xml version="1.0" encoding="utf-8"?>
<!-- Generator: Adobe Illustrator 22.1.0, SVG Export Plug-In . SVG Version: 6.00 Build 0)  -->
<svg version="1.1" id="Capa_1" xmlns="http://www.w3.org/2000/svg" xmlns:xlink="http://www.w3.org/1999/xlink" x="0px" y="0px"
	 viewBox="0 0 297 297" style="enable-background:new 0 0 297 297;" xml:space="preserve">
<style type="text/css">
	.st0{fill:#009CAC;}
</style>
<g>
	<path class="st0" d="M296.6,259.1l-30.8-107.9c-1.2-4.3-5.1-7.2-9.6-7.2h-59.8c9.6-16.2,17.1-34.8,17.1-53.7c0-35.8-29.1-65-65-65
		s-65,29.2-65,65c0,18.9,7.5,37.5,17.1,53.7H40.8c-4.5,0-8.4,3-9.6,7.2L0.4,259.1c-0.9,3-0.3,6.2,1.6,8.7s4.8,4,8,4H287
		c3.1,0,6.1-1.5,8-4C296.9,265.3,297.5,262.1,296.6,259.1z M148.5,45.2c24.8,0,45,20.2,45,45.1c0,33.4-31.1,68.5-45.1,82.5
		c-13.9-14-45-49.1-45-82.5C103.5,65.4,123.7,45.2,148.5,45.2z M23.2,251.8l25.1-88h65.9c13.5,17.5,26.6,29.2,27.7,30.1
		c1.9,1.7,4.2,2.5,6.6,2.5c2.4,0,4.7-0.8,6.6-2.5c1.1-1,14.2-12.7,27.7-30.1h65.9l25.1,88L23.2,251.8L23.2,251.8z"/>
	<path class="st0" d="M175.3,90.2c0-14.9-12-27-26.8-27s-26.8,12.1-26.8,27c0,14.9,12,26.9,26.8,26.9
		C163.3,117.2,175.3,105.1,175.3,90.2z M141.6,90.2c0-3.9,3.1-7,6.9-7s6.9,3.1,6.9,7c0,3.9-3.1,7-6.9,7S141.6,94.1,141.6,90.2z"/>
	<path class="st0" d="M230.7,189.7c-2.6,0-5.2,1.1-7,2.9c-1.9,1.9-2.9,4.4-2.9,7s1.1,5.2,2.9,7c1.9,1.9,4.4,2.9,7,2.9s5.2-1.1,7-2.9
		c1.9-1.9,2.9-4.4,2.9-7s-1.1-5.2-2.9-7C235.9,190.7,233.3,189.7,230.7,189.7z"/>
	<path class="st0" d="M108.4,191.6c-5.5-0.2-10.2,4-10.4,9.5c-0.2,5.5,4,10.2,9.5,10.4c0.2,0,0.3,0,0.4,0c5.3,0,9.7-4.2,10-9.5
		C118.1,196.5,113.9,191.8,108.4,191.6z"/>
	<path class="st0" d="M82.4,195.3L82.4,195.3c-5.2,1.8-8,7.5-6.1,12.7c1.4,4.1,5.3,6.7,9.4,6.7c1.1,0,2.2-0.2,3.3-0.6
		c5.2-1.8,8-7.5,6.1-12.7C93.3,196.3,87.6,193.5,82.4,195.3z"/>
	<path class="st0" d="M208.1,205.9c-4.6,3-5.9,9.2-2.9,13.8c1.9,2.9,5.1,4.5,8.4,4.5c1.9,0,3.8-0.5,5.5-1.6c4.6-3,5.9-9.2,2.9-13.8
		C218.8,204.1,212.7,202.9,208.1,205.9z"/>
	<path class="st0" d="M172.3,215.2c-5.4-0.9-10.5,2.8-11.4,8.3c-0.9,5.4,2.8,10.5,8.3,11.4c0.5,0.1,1.1,0.1,1.6,0.1
		c4.8,0,9.1-3.5,9.8-8.4C181.4,221.2,177.7,216.1,172.3,215.2z"/>
	<path class="st0" d="M190.4,214.1L190.4,214.1c-5.3,1.5-8.4,6.9-7,12.2c1.2,4.4,5.2,7.3,9.6,7.3c0.9,0,1.8-0.1,2.7-0.4
		c5.3-1.5,8.4-6.9,7-12.3C201.2,215.7,195.8,212.6,190.4,214.1z"/>
	<path class="st0" d="M133.5,197c-5.1-2-10.9,0.6-12.9,5.7c-2,5.1,0.6,10.9,5.7,12.9c1.2,0.5,2.4,0.7,3.6,0.7c4,0,7.8-2.4,9.3-6.4
		C141.2,204.7,138.7,199,133.5,197z"/>
	<path class="st0" d="M155.1,208.5L155.1,208.5c-4.6-2.9-10.8-1.6-13.8,3.1c-2.9,4.7-1.6,10.8,3.1,13.8c1.7,1,3.5,1.5,5.3,1.5
		c3.3,0,6.5-1.6,8.4-4.6C161.2,217.6,159.8,211.5,155.1,208.5z"/>
	<path class="st0" d="M66.3,206.1c-2.6,0-5.2,1.1-7,2.9c-1.9,1.9-2.9,4.4-2.9,7s1.1,5.2,2.9,7c1.9,1.9,4.4,2.9,7,2.9
		c2.6,0,5.2-1.1,7-2.9c1.9-1.9,2.9-4.4,2.9-7s-1.1-5.2-2.9-7C71.5,207.2,68.9,206.1,66.3,206.1z"/>
</g>
</svg>
