<?xml version="1.0" encoding="utf-8"?>
<!-- Generator: Adobe Illustrator 22.1.0, SVG Export Plug-In . SVG Version: 6.00 Build 0)  -->
<svg version="1.1" id="Capa_1" xmlns="http://www.w3.org/2000/svg" xmlns:xlink="http://www.w3.org/1999/xlink" x="0px" y="0px"
	 viewBox="0 0 235.9 235.9" style="enable-background:new 0 0 235.9 235.9;" xml:space="preserve">
<style type="text/css">
	.st0{fill:#009CAC;}
</style>
<g>
	<g>
		<path class="st0" d="M192.2,136.1c-7.1,0-13.8,1.7-19.7,4.8L143,91.8c11.2-7.9,18.6-20.9,18.6-35.7c0-24.1-19.6-43.6-43.6-43.6
			c-24.1,0-43.6,19.6-43.6,43.6s19.6,43.6,43.6,43.6c7.1,0,13.8-1.7,19.7-4.8l29.5,49.1c-10.4,7.3-17.5,19.1-18.4,32.6H87.1
			c-1.6-22.6-20.5-40.5-43.5-40.5C19.6,136.1,0,155.7,0,179.8s19.6,43.6,43.6,43.6c23,0,41.9-17.9,43.5-40.5h61.6
			c1.6,22.6,20.5,40.5,43.5,40.5c24.1,0,43.6-19.6,43.6-43.6C235.9,155.7,216.3,136.1,192.2,136.1z M80.5,56.1
			c0-20.6,16.8-37.4,37.4-37.4c20.6,0,37.4,16.8,37.4,37.4s-16.8,37.4-37.4,37.4C97.3,93.5,80.5,76.8,80.5,56.1z M43.6,217.2
			c-20.6,0-37.4-16.8-37.4-37.4c0-20.6,16.8-37.4,37.4-37.4s37.4,16.8,37.4,37.4C81.1,200.4,64.3,217.2,43.6,217.2z M192.2,217.2
			c-20.6,0-37.4-16.8-37.4-37.4c0-20.6,16.8-37.4,37.4-37.4s37.4,16.8,37.4,37.4C229.6,200.4,212.9,217.2,192.2,217.2z"/>
		<path class="st0" d="M117.9,39.1c3.1,0,5.7-3.6,5.7-6.8c0-3.1-2.5-5.7-5.7-5.7c-3.1,0-5.7,2.5-5.7,5.7
			C112.3,35.5,114.8,39.1,117.9,39.1z"/>
		<path class="st0" d="M129.1,43.1c0-0.2-0.1-0.3-0.2-0.5c-0.1-0.1-0.1-0.2-0.2-0.3c-0.1-0.1-0.2-0.3-0.3-0.4
			c-0.1-0.1-0.2-0.1-0.3-0.2c-0.1-0.1-0.2-0.2-0.3-0.2c-0.2-0.1-4.7-1.7-8.9-1.9l-0.6,1.1h0l1.5,11.8l-1.8,3.1l-1.8-3.1l1.5-11.8h0
			l-0.6-1.1c-4.2,0.2-8.7,1.8-8.9,1.9c-0.1,0-0.2,0.1-0.3,0.2c-0.1,0.1-0.2,0.1-0.3,0.2c-0.1,0.1-0.2,0.2-0.3,0.4
			c-0.1,0.1-0.1,0.2-0.2,0.3c-0.1,0.1-0.1,0.3-0.2,0.5c0,0.1-0.1,0.2-0.1,0.3l-1.8,16.2c-0.1,1.2,0.8,2.3,2,2.5c0.1,0,0.2,0,0.3,0
			c1.1,0,2.1-0.8,2.2-2l1.6-14.7c0.2-0.1,0.4-0.1,0.6-0.2v15.3l-1.8,22.2c-0.1,1.5,1,2.8,2.5,2.9c0.1,0,0.1,0,0.2,0
			c1.4,0,2.6-1.1,2.7-2.5l1.6-20.1c0.3,0.1,0.7,0.2,1.1,0.2s0.8-0.1,1.1-0.2l1.6,20.1c0.1,1.4,1.3,2.5,2.7,2.5c0.1,0,0.2,0,0.2,0
			c1.5-0.1,2.6-1.4,2.5-2.9l-1.8-22.2V45.1c0.2,0.1,0.4,0.1,0.6,0.2l1.6,14.7c0.1,1.1,1.1,2,2.2,2c0.1,0,0.2,0,0.3,0
			c1.2-0.1,2.1-1.2,2-2.5l-1.8-16.2C129.1,43.3,129.1,43.2,129.1,43.1z"/>
		<path class="st0" d="M214.8,180.6c0.1-3-0.4-6-1.5-8.9l4.7-2.9l-4.5-7.3l-4.6,2.9c-2.1-2.3-4.6-4-7.3-5.3l1.2-5.3l-8.3-1.9
			l-1.2,5.3c-3-0.1-6,0.4-8.9,1.5l-2.9-4.6l-7.2,4.5l2.9,4.6c-2.3,2.1-4.1,4.6-5.3,7.4l-5.3-1.2l-1.9,8.3l5.3,1.2
			c-0.1,3,0.4,6,1.5,8.9l-4.6,2.9l4.5,7.3l4.6-2.9c2.1,2.3,4.6,4,7.3,5.3l-1.2,5.3l8.3,1.9l1.2-5.3c3,0.1,6-0.4,8.9-1.5l2.9,4.6
			l7.3-4.5l-2.9-4.6c2.3-2.1,4.1-4.6,5.3-7.4l5.3,1.2l1.9-8.4L214.8,180.6z M200.4,192.8c-7.2,4.5-16.7,2.3-21.2-4.9
			c-4.5-7.2-2.3-16.7,4.9-21.2c7.2-4.5,16.7-2.3,21.2,4.9C209.8,178.8,207.6,188.3,200.4,192.8z"/>
		<rect x="18.6" y="179.8" class="st0" width="12.5" height="19.4"/>
		<rect x="37.4" y="171.1" class="st0" width="12.5" height="28.1"/>
		<rect x="56.2" y="160.3" class="st0" width="12.5" height="38.8"/>
	</g>
</g>
</svg>
