<?xml version="1.0" encoding="utf-8"?>
<!-- Generator: Adobe Illustrator 22.1.0, SVG Export Plug-In . SVG Version: 6.00 Build 0)  -->
<svg version="1.1" id="Layer_2_1_" xmlns="http://www.w3.org/2000/svg" xmlns:xlink="http://www.w3.org/1999/xlink" x="0px" y="0px"
	 viewBox="0 0 309 327" style="enable-background:new 0 0 309 327;" xml:space="preserve">
<style type="text/css">
	.st0{display:none;}
	.st1{display:none;stroke:#F4F9F9;stroke-miterlimit:10;}
	.st2{display:none;opacity:0.59;}
	.st3{display:none;fill:none;stroke:url(#SVGID_1_);stroke-width:26;stroke-miterlimit:10;}
	.st4{fill:none;stroke:#009CAC;stroke-width:11;stroke-miterlimit:10;enable-background:new    ;}
	.st5{display:none;fill:#020101;}
	.st6{display:none;fill:#F7F9F9;}
	.st7{display:none;fill:#FAFCFC;}
	.st8{display:none;opacity:0.37;fill:url(#SVGID_2_);enable-background:new    ;}
	.st9{fill:#009CAC;}
</style>
<title>Artboard 1</title>
<polygon class="st0" points="157.3,182.4 198.5,217 291.8,216.9 157.3,328.7 22.5,217 116,217 "/>
<polygon class="st1" points="157.4,-16.1 322.3,43.9 291.8,216.9 245.1,135.9 194.5,117.5 203.8,64.9 "/>
<polygon class="st0" points="-7.7,43.9 157.4,-16.1 110.7,64.9 120,117.5 69.4,135.9 22.5,217 "/>
<g class="st2">
	
		<image style="display:inline;overflow:visible;enable-background:new    ;" width="331" height="348" xlink:href="../../../../../../../../Desktop/1FD7906B.png"  transform="matrix(0.9971 0 0 0.9971 -8.0128 -16.9878)">
	</image>
</g>
<linearGradient id="SVGID_1_" gradientUnits="userSpaceOnUse" x1="272.4432" y1="624.8293" x2="42.0009" y2="394.3871" gradientTransform="matrix(1 0 0 1 0 -394.3741)">
	<stop  offset="1.000000e-02" style="stop-color:#000000"/>
	<stop  offset="0.43" style="stop-color:#979899;stop-opacity:0.3"/>
	<stop  offset="1" style="stop-color:#000000"/>
</linearGradient>
<polygon class="st3" points="157.3,0.8 303.1,53.9 276,208 157.3,307.6 38.5,208 11.3,53.9 "/>
<polygon class="st4" points="154.3,9.8 300.1,62.9 273,217 154.3,316.6 35.5,217 8.3,62.9 "/>
<polygon class="st5" points="157.3,104 194.5,117.5 187.6,157 157.3,182.4 126.9,157 120,117.5 "/>
<polygon class="st6" points="194.5,117.5 245.1,135.9 291.8,216.9 198.5,217 157.3,182.4 187.6,157 "/>
<polygon class="st6" points="120,117.5 126.9,157 157.3,182.4 116,217 22.5,217 69.4,135.9 "/>
<polygon class="st7" points="194.5,117.5 203.8,64.9 157.4,-16.1 110.7,64.9 120,117.5 157.3,104 "/>
<linearGradient id="SVGID_2_" gradientUnits="userSpaceOnUse" x1="126" y1="536.5741" x2="186.83" y2="536.5741" gradientTransform="matrix(1 0 0 1 0 -394.3741)">
	<stop  offset="1.000000e-02" style="stop-color:#85878D"/>
	<stop  offset="0.51" style="stop-color:#979899"/>
	<stop  offset="0.66" style="stop-color:#000000"/>
</linearGradient>
<polygon class="st8" points="157.3,109.3 188.5,120.7 182.7,153.7 157.3,175.1 131.8,153.7 126,120.7 "/>
<g>
	<g>
		<path class="st9" d="M265.8,156.6l-29.7-67.9c-0.2-0.4-0.4-0.7-0.8-1l-52.8-41.3c-0.4-0.3-0.8-0.5-1.3-0.6l-10-1.8
			c-1.4-0.3-2.8,0.5-3.2,1.8l-7,20.8c-0.3,0.8-0.1,1.6,0.4,2.2l6.6,8.8c0.3,0.3,0.6,0.6,1,0.8l23.6,11.5L150.5,129l-31.4-29
			c5.2-14,1.3-29.8-10-40.3c-8-7.4-18.6-11.4-29.9-11.4c-5.5,0-10.9,1-16,2.9c-0.9,0.3-1.5,1-1.7,1.9c-0.2,0.9,0.1,1.7,0.8,2.4
			l20,18.5l-0.9,15.5l-16.7,0.8l-20-18.5C44,71,43,70.8,42.1,70.9c-0.9,0.2-1.7,0.8-2,1.6c-6.4,14.6-2.8,31.3,9.2,42.4
			c8,7.4,18.5,11.4,29.8,11.4c0,0,0,0,0,0c4.7,0,9.3-0.8,13.8-2.2l31.5,29.1l-49.2,45.4c-0.5,0.4-0.7,1-0.8,1.6
			c-3.2,5.6-2.2,12.6,2.7,17.1c3,2.7,6.9,4.2,11.1,4.2c2.6,0,5.2-0.6,7.4-1.7c0.7-0.1,1.3-0.3,1.7-0.8l1.7-1.6
			c0.1-0.1,0.2-0.2,0.3-0.2c0,0,0,0,0,0c0,0,20.5-19,47.1-43.7l22.3,20.6c-5.2,14.1-1.4,29.7,10,40.3c8,7.4,18.6,11.4,29.9,11.4
			c11.3,0,21.9-4.1,29.9-11.4c8-7.4,12.4-17.2,12.4-27.6c0-10.4-4.4-20.2-12.4-27.6c-8-7.4-18.6-11.4-29.9-11.4
			c-4.8,0-9.4,0.8-13.8,2.2l-22.3-20.6c14.4-13.3,29.1-27,42.6-39.5l39.7,51.4c0.5,0.7,1.4,1.1,2.3,1.1c0.4,0,0.7-0.1,1-0.2l6.1-2.2
			c0.7-0.3,1.2-0.8,1.5-1.4C266.1,158,266.1,157.3,265.8,156.6z M234.6,183c6.9,6.4,10.7,14.9,10.7,23.9c0,9-3.8,17.5-10.7,23.9
			c-6.9,6.4-16.1,9.9-25.9,9.9c-9.8,0-19-3.5-25.9-9.9c-10.2-9.4-13.5-23.5-8.3-36c0.1-0.1,0.2-0.3,0.2-0.5c0.1-0.3,0.2-0.5,0.3-0.8
			l0.2-0.5c1.9-3.8,4.4-7.3,7.5-10.1c6.9-6.4,16.1-9.9,25.9-9.9C218.5,173.1,227.7,176.6,234.6,183z M179.3,178.1
			c-3.4,3.1-6.2,6.8-8.2,10.9l-20.5-18.9l18.2-16.9l19.9,18.4C185.2,173.4,182.1,175.6,179.3,178.1z M79.1,121.1
			c-9.8,0-18.9-3.5-25.8-9.9c-9.4-8.7-12.9-21.3-9.4-32.9l17.7,16.3c0.6,0.5,1.4,0.8,2.1,0.8l20.5-1c1.4-0.1,2.6-1.1,2.7-2.5
			L87.9,73c0-0.7-0.3-1.5-0.8-2L69.4,54.6c3.2-0.8,6.4-1.2,9.8-1.2c9.8,0,19,3.5,25.9,9.9c9.9,9.1,13.3,23,8.6,35.2
			c-0.1,0.2-0.2,0.3-0.2,0.5l-0.3,0.6c-1.9,4.4-4.6,8.3-8.1,11.6c-3.2,3-7,5.4-11.3,7.1c-0.2,0.1-0.4,0.2-0.6,0.2l-0.5,0.2
			C88.3,120.3,83.7,121.1,79.1,121.1C79.1,121.1,79.1,121.1,79.1,121.1z M98.5,122c0.2-0.1,0.5-0.2,0.7-0.4c0.4-0.2,0.7-0.4,1.1-0.6
			c0.7-0.4,1.4-0.8,2.1-1.2c0.4-0.2,0.7-0.4,1.1-0.6c0.7-0.5,1.4-0.9,2.1-1.4c0.3-0.2,0.6-0.4,0.8-0.6c0.9-0.7,1.8-1.5,2.7-2.3
			c0.9-0.9,1.8-1.7,2.6-2.7c0.2-0.3,0.5-0.5,0.7-0.8c0.6-0.7,1.2-1.4,1.7-2.2c0.2-0.3,0.4-0.6,0.7-0.9c0.6-0.9,1.2-1.8,1.7-2.8
			c0.1-0.1,0.2-0.2,0.2-0.4c0,0,0-0.1,0.1-0.1l29.8,27.6l-18.2,16.8L98.5,122z M95.3,213.6C95.3,213.7,95.3,213.7,95.3,213.6l-1.1,1
			c-0.2,0.1-0.4,0.2-0.6,0.3c-3.9,2.4-9.3,1.9-12.6-1.2c-3.4-3.1-3.9-8-1.3-11.7c0.1-0.2,0.2-0.4,0.3-0.5l49.5-45.7
			c0.4-0.1,0.7-0.3,1-0.6l22.2-20.5c0.3-0.3,0.5-0.6,0.6-0.9L197.5,93l14.1,13C162.7,151.2,96.4,212.6,95.3,213.6z M258.1,156.7
			l-40.3-52.2c-0.1-0.1-0.2-0.2-0.3-0.3c0,0,0,0,0,0l-18-16.7c0,0-0.1,0-0.1-0.1c-0.2-0.1-0.3-0.3-0.6-0.4l-26.4-12.9l-5.5-7.3
			l5.8-17.3l6.8,1.2l51.7,40.5l28.3,64.9L258.1,156.7z"/>
		<path class="st9" d="M201.8,225.8c0.5,0.5,1.3,0.8,2,0.8c0.2,0,0.5,0,0.7-0.1l18.4-4.6c1-0.2,1.7-0.9,2-1.8l4.9-17
			c0.3-0.9,0-1.9-0.7-2.5l-13.5-12.5c-0.5-0.5-1.2-0.8-2-0.8c-0.2,0-0.5,0-0.7,0.1l-18.4,4.6c-1,0.2-1.7,0.9-2,1.8l-4.9,17
			c-0.3,0.9,0,1.9,0.7,2.5L201.8,225.8z M197.5,196.6l15.3-3.8l11.2,10.3l-4.1,14.1l-15.3,3.8l-11.2-10.4L197.5,196.6z"/>
	</g>
</g>
</svg>
